HIERARCHY
ROOT joint_Root
{
	OFFSET 0.0 0.0 0.0
	CHANNELS 6 Xposition Yposition Zposition Zrotation Xrotation Yrotation 
	JOINT Hips
	{
		OFFSET -0.726466 93.3139 -2.00062
		CHANNELS 6 Xposition Yposition Zposition Zrotation Xrotation Yrotation 
		JOINT Spine
		{
			OFFSET 15.7357 0.0 0.0
			CHANNELS 6 Xposition Yposition Zposition Zrotation Xrotation Yrotation 
			JOINT Chest
			{
				OFFSET 8.98455 -0.406207 0.0
				CHANNELS 6 Xposition Yposition Zposition Zrotation Xrotation Yrotation 
				JOINT Neck
				{
					OFFSET 16.3773 0.0 0.0
					CHANNELS 6 Xposition Yposition Zposition Zrotation Xrotation Yrotation 
					JOINT Head
					{
						OFFSET 6.45672 0.0 0.0
						CHANNELS 6 Xposition Yposition Zposition Zrotation Xrotation Yrotation 
						End Site
						{
							OFFSET 0.0 0.0 0.0
						}
					}
				}
				JOINT Shoulder_L
				{
					OFFSET 12.9942 -0.242716 4.98039
					CHANNELS 6 Xposition Yposition Zposition Zrotation Xrotation Yrotation 
					JOINT UpperArm_L
					{
						OFFSET 5.34809 0.0 0.0
						CHANNELS 6 Xposition Yposition Zposition Zrotation Xrotation Yrotation 
						JOINT LowerArm_L
						{
							OFFSET 24.3286 1.87007e-05 0.0
							CHANNELS 6 Xposition Yposition Zposition Zrotation Xrotation Yrotation 
							JOINT Hand_L
							{
								OFFSET 22.2916 0.0 0.0
								CHANNELS 6 Xposition Yposition Zposition Zrotation Xrotation Yrotation 
								End Site
								{
									OFFSET 0.0 0.0 0.0
								}
							}
						}
					}
				}
				JOINT Shoulder_R
				{
					OFFSET 12.9945 -0.242716 -4.98039
					CHANNELS 6 Xposition Yposition Zposition Zrotation Xrotation Yrotation 
					JOINT UpperArm_R
					{
						OFFSET -5.34813 0.0 0.0
						CHANNELS 6 Xposition Yposition Zposition Zrotation Xrotation Yrotation 
						JOINT LowerArm_R
						{
							OFFSET -24.3289 0.000322201 0.0
							CHANNELS 6 Xposition Yposition Zposition Zrotation Xrotation Yrotation 
							JOINT Hand_R
							{
								OFFSET -22.2915 -0.000108084 0.0
								CHANNELS 6 Xposition Yposition Zposition Zrotation Xrotation Yrotation 
								End Site
								{
									OFFSET 0.0 0.0 0.0
								}
							}
						}
					}
				}
			}
		}
		JOINT UpperLeg_L
		{
			OFFSET -2.19248 -6.46944 0.0
			CHANNELS 6 Xposition Yposition Zposition Zrotation Xrotation Yrotation 
			JOINT LowerLeg_L
			{
				OFFSET 39.0811 0.0 -1.23785e-05
				CHANNELS 6 Xposition Yposition Zposition Zrotation Xrotation Yrotation 
				JOINT Foot_L
				{
					OFFSET 40.9854 0.0 -1.26872e-05
					CHANNELS 6 Xposition Yposition Zposition Zrotation Xrotation Yrotation 
					JOINT Toes_L
					{
						OFFSET 11.7543 0.0 0.0
						CHANNELS 6 Xposition Yposition Zposition Zrotation Xrotation Yrotation 
						End Site
						{
							OFFSET 0.0 0.0 0.0
						}
					}
				}
			}
		}
		JOINT UpperLeg_R
		{
			OFFSET -2.19251 6.46944 0.0
			CHANNELS 6 Xposition Yposition Zposition Zrotation Xrotation Yrotation 
			JOINT LowerLeg_R
			{
				OFFSET -39.0811 -0.00228153 -0.0401928
				CHANNELS 6 Xposition Yposition Zposition Zrotation Xrotation Yrotation 
				JOINT Foot_R
				{
					OFFSET -40.9854 0.0 0.0
					CHANNELS 6 Xposition Yposition Zposition Zrotation Xrotation Yrotation 
					JOINT Toes_R
					{
						OFFSET -11.7543 0.0 0.0
						CHANNELS 6 Xposition Yposition Zposition Zrotation Xrotation Yrotation 
						End Site
						{
							OFFSET 0.0 0.0 0.0
						}
					}
				}
			}
		}
	}
}
MOTION
Frames:	4
Frame Time:	0.0333333
0.000000 0.000000 0.000000 0.000000 0.000000 -0.000000 -0.280772 92.327100 -1.416050 88.128400 -0.677218 4.426040 15.735700 0.000005 -0.000001 88.951600 85.258700 -88.948500 8.984550 -0.406207 -0.000000 1.714950 -0.173561 0.008719 16.377300 -0.000001 -0.000001 3.529780 -2.738050 0.655973 6.456720 -0.000001 -0.000000 3.197800 -2.398200 0.139975 12.994200 -0.242716 4.980390 -90.043000 0.141370 -73.095700 5.348090 -0.000007 -0.000001 -67.261600 37.196600 -15.867000 24.328600 0.000019 0.000005 1.958890 4.231190 -24.869500 22.291600 -0.000001 0.000005 1.752210 5.443390 -4.397740 12.994500 -0.242716 -4.980390 87.796400 6.826770 -72.062300 -5.348130 -0.000001 -0.000004 -64.849100 40.517100 -16.885500 -24.328900 0.000322 -0.000009 4.187540 10.988800 -21.015700 -22.291500 -0.000108 -0.000004 5.757130 5.364350 -1.808540 -2.192480 -6.469440 -0.000000 -175.932000 -6.192650 -2.941780 39.081100 -0.000007 -0.000012 -0.100295 0.234746 23.134700 40.985400 -0.000006 -0.000013 0.081464 3.230590 -66.016400 11.754300 -0.000000 0.000003 -0.000031 -0.000373 -16.592100 -2.192510 6.469440 -0.000001 179.362000 12.318400 179.295000 -39.081100 -0.002282 -0.040193 -0.052909 0.155256 19.909300 -40.985400 0.000008 0.000006 2.206780 6.690270 -65.090000 -11.754300 -0.000006 -0.000006 -0.007958 -0.087693 -20.144000
0.000000 0.000000 0.000000 0.000000 0.000000 -0.000000 -0.295906 92.317000 -1.393210 88.141300 -0.578868 4.543710 15.735700 0.000005 -0.000001 89.051500 85.253500 -89.065900 8.984550 -0.406207 -0.000000 1.725730 -0.156302 -0.026358 16.377300 -0.000001 -0.000001 3.524280 -2.803240 0.683337 6.456720 -0.000001 -0.000000 3.359560 -2.432150 0.164699 12.994200 -0.242716 4.980390 -90.099600 0.329608 -73.181900 5.348090 -0.000007 -0.000001 -65.532400 36.274700 -17.659500 24.328600 0.000019 0.000005 2.574910 5.260950 -26.121200 22.291600 -0.000001 0.000005 -0.482972 5.415940 -3.448360 12.994500 -0.242716 -4.980390 87.825900 6.730810 -72.052700 -5.348130 -0.000001 -0.000004 -63.423000 40.740500 -18.047000 -24.328900 0.000322 -0.000009 5.037230 11.869900 -23.198900 -22.291500 -0.000108 -0.000004 3.082200 5.343160 -1.166170 -2.192480 -6.469440 -0.000000 -175.925000 -6.126060 -2.844620 39.081100 -0.000007 -0.000012 -0.100094 0.233712 23.184600 40.985400 -0.000006 -0.000013 0.080179 3.266550 -66.050700 11.754300 -0.000000 0.000003 -0.000033 -0.000389 -16.592700 -2.192510 6.469440 -0.000001 179.341000 12.300800 179.404000 -39.081100 -0.002282 -0.040193 -0.052523 0.153565 19.984100 -40.985400 0.000008 0.000006 2.230100 6.568760 -65.157900 -11.754300 -0.000006 -0.000006 -0.007566 -0.084452 -20.011600
0.000000 0.000000 0.000000 0.000000 0.000000 -0.000000 -0.315017 92.305700 -1.434660 88.166000 -0.363906 4.724910 15.735700 0.000005 -0.000001 88.760500 85.230200 -88.802800 8.984550 -0.406207 -0.000000 1.771250 -0.204025 -0.081310 16.377300 -0.000001 -0.000001 3.674250 -2.833560 0.681943 6.456720 -0.000001 -0.000000 3.515800 -2.479770 0.256617 12.994200 -0.242716 4.980390 -90.158700 0.531660 -73.378100 5.348090 -0.000007 -0.000001 -62.060900 35.031700 -21.436800 24.328600 0.000019 0.000005 4.531270 8.625030 -27.848900 22.291600 -0.000001 0.000005 -3.292610 5.368110 -1.909030 12.994500 -0.242716 -4.980390 87.823600 6.738840 -72.055000 -5.348130 -0.000001 -0.000004 -60.471300 40.452600 -20.851200 -24.328900 0.000322 -0.000009 6.303110 13.095900 -25.989900 -22.291500 -0.000108 -0.000004 -1.612160 5.315990 -0.354192 -2.192480 -6.469440 -0.000000 -175.930000 -5.984260 -2.765270 39.081100 -0.000007 -0.000012 -0.100383 0.233401 23.272100 40.985400 -0.000006 -0.000013 0.079705 3.310280 -66.047900 11.754300 -0.000000 0.000003 -0.000029 -0.000350 -16.591200 -2.192510 6.469440 -0.000001 179.312000 12.322400 179.509000 -39.081100 -0.002282 -0.040193 -0.053098 0.154049 20.114900 -40.985400 0.000008 0.000006 2.254110 6.360540 -65.214000 -11.754300 -0.000006 -0.000006 -0.007700 -0.085568 -20.057200
0.000000 0.000000 0.000000 0.000000 0.000000 -0.000000 -0.346663 92.272200 -1.522560 88.208200 -0.146490 5.061850 15.735700 0.000005 -0.000001 88.211300 85.189200 -88.281800 8.984550 -0.406207 -0.000000 1.850820 -0.296514 -0.136196 16.377300 -0.000001 -0.000001 4.107510 -2.857030 0.543595 6.456720 -0.000001 -0.000000 3.821460 -2.469440 0.474656 12.994200 -0.242716 4.980390 -90.141500 0.486364 -73.777600 5.348090 -0.000007 -0.000001 -58.279300 32.117300 -26.137600 24.328600 0.000019 0.000005 5.975620 10.489600 -29.894600 22.291600 -0.000001 0.000005 -5.087530 5.320110 -0.497705 12.994500 -0.242716 -4.980390 87.830700 6.708030 -72.033000 -5.348130 -0.000001 -0.000004 -56.050400 39.078300 -25.495600 -24.328900 0.000322 -0.000009 7.636250 13.878100 -29.205900 -22.291500 -0.000108 -0.000004 -6.961670 5.257020 1.281830 -2.192480 -6.469440 -0.000000 -175.944000 -5.788270 -2.643110 39.081100 -0.000007 -0.000012 -0.101096 0.232292 23.519300 40.985400 -0.000006 -0.000013 0.081664 3.344310 -66.093200 11.754300 -0.000000 0.000003 -0.000032 -0.000384 -16.592600 -2.192510 6.469440 -0.000001 179.237000 12.305800 179.651000 -39.081100 -0.002282 -0.040193 -0.057235 0.162617 20.424300 -40.985400 0.000008 0.000006 2.135650 6.131400 -65.307900 -11.754300 -0.000006 -0.000006 -0.007729 -0.085803 -20.066800
